<svg xmlns="http://www.w3.org/2000/svg" xmlns:xlink="http://www.w3.org/1999/xlink" version="1.1" x="0px" y="0px" viewBox="0 0 100 125" style="enable-background:new 0 0 100 100;" xml:space="preserve"><path d="M80.6,63.9c0.1-0.1,0.1-0.2,0.2-0.3c0,0,0-0.1,0.1-0.1c0.1-0.1,0.1-0.3,0.2-0.4V63c0-0.1,0.1-0.2,0.1-0.4l0.1-0.3l7.4-26.1  c0.5-1.8-0.8-3.5-2.7-3.6c-0.3,0-0.5,0-0.5,0c-0.1,0-0.1,0-0.2,0H56.5h-1.3H27.7c-0.1,0-0.1,0-0.2,0l-2.7-9.6  c-0.6-2.5-2.4-4.2-4.5-4.2h-7c-1,0-2,0.9-2.1,2.2c-0.1,1.5,0.8,2.8,2,2.8h7.1c0.3,0,0.6,0.3,0.7,0.7l10.7,37.7l0.1,0.3  c0,0.1,0.1,0.2,0.1,0.4V63c0.1,0.1,0.1,0.3,0.2,0.4c0,0,0,0.1,0.1,0.1c0.1,0.1,0.1,0.2,0.2,0.3c0,0.1,0.1,0.1,0.1,0.2  c0.1,0.1,0.2,0.2,0.2,0.2l0.1,0.1c0.5,0.4,1.1,0.7,1.7,0.7c0,0,0,0,0.1,0c8.8,0,42.4,0,43.9,0h0.1c0.6,0,1.2-0.3,1.7-0.7l0.1-0.1  C80.5,64,80.6,64,80.6,63.9C80.5,64,80.6,64,80.6,63.9z M35.3,60.6l-6.6-23.4h26.5h1.3h27.7l-6.6,23.4H35.3z"/><path d="M42.1,68.3c-3.6,0-6.5,2.9-6.5,6.5s2.9,6.5,6.5,6.5s6.5-2.9,6.5-6.5S45.7,68.3,42.1,68.3z M42.1,77.1c-1.3,0-2.3-1-2.3-2.3  s1-2.3,2.3-2.3s2.3,1,2.3,2.3C44.4,75.9,43.4,77.1,42.1,77.1z"/><path d="M69.9,68.3c-3.6,0-6.5,2.9-6.5,6.5s2.9,6.5,6.5,6.5s6.5-2.9,6.5-6.5S73.4,68.3,69.9,68.3z M69.9,77.1c-1.3,0-2.3-1-2.3-2.3  s1-2.3,2.3-2.3c1.3,0,2.3,1,2.3,2.3C72.1,75.9,71.1,77.1,69.9,77.1z"/></svg>